<?xml version="1.0" encoding="utf-8"?>
<!-- Generator: Adobe Illustrator 28.4.1, SVG Export Plug-In . SVG Version: 6.00 Build 0)  -->
<svg version="1.1" xmlns="http://www.w3.org/2000/svg" xmlns:xlink="http://www.w3.org/1999/xlink" x="0px" y="0px"
	 viewBox="0 0 512 512" style="enable-background:new 0 0 512 512;" xml:space="preserve">
<style type="text/css">
	.st0{fill:#242421;}
	.st1{fill:#FAF9D9;}
</style>
<g id="Layer_1">
	<circle class="st0" cx="256" cy="256" r="256"/>
</g>
<g id="Layer_2">
	<g>
		<path class="st1" d="M348.8,157.2v155.6c0,7.2,1.73,12.87,5.2,17c3.46,4.14,8.8,6.2,16,6.2c7.2,0,15.46-3.86,24.8-11.6l7.2,9.6
			c-21.34,19.47-42.67,29.2-64,29.2c-25.34,0-40.94-11.86-46.8-35.6c-13.87,23.74-34.27,35.6-61.2,35.6c-30.67,0-54-9.93-70-29.8
			c-16-19.86-24-45.2-24-76c0-30.8,8.6-56.2,25.8-76.2c17.2-20,41.26-30,72.2-30c23.73,0,42,9.47,54.8,28.4v-22.4H348.8z
			 M209.2,196.4c-7.47,14.94-11.2,35.2-11.2,60.8c0,25.6,3.73,45.87,11.2,60.8c7.46,14.94,18.86,22.4,34.2,22.4
			c15.33,0,27.06-7.53,35.2-22.6c8.13-15.06,12.2-35.26,12.2-60.6c0-25.33-4.07-45.53-12.2-60.6c-8.14-15.06-19.87-22.6-35.2-22.6
			C228.06,174,216.66,181.47,209.2,196.4z"/>
	</g>
</g>
</svg>
