<svg xmlns="http://www.w3.org/2000/svg" xmlns:xlink="http://www.w3.org/1999/xlink" viewBox="0,0,256,256" width="24px" height="24px" fill-rule="nonzero"><g fill="#141414" fill-rule="nonzero" stroke="none" stroke-width="1" stroke-linecap="butt" stroke-linejoin="miter" stroke-miterlimit="10" stroke-dasharray="" stroke-dashoffset="0" font-family="none" font-weight="none" font-size="none" text-anchor="none" style="mix-blend-mode: normal"><g transform="scale(10.66667,10.66667)"><path d="M21.989,20.575l-5.677,-5.677c1.054,-1.356 1.688,-3.052 1.688,-4.898c0,-4.411 -3.589,-8 -8,-8c-4.411,0 -8,3.589 -8,8c0,4.411 3.589,8 8,8c1.846,0 3.542,-0.634 4.898,-1.688l5.677,5.677zM4,10c0,-3.309 2.691,-6 6,-6c3.309,0 6,2.691 6,6c0,3.309 -2.691,6 -6,6c-3.309,0 -6,-2.691 -6,-6zM6,10c0,-2.206 1.794,-4 4,-4c2.206,0 4,1.794 4,4c0,2.206 -1.794,4 -4,4c-2.206,0 -4,-1.794 -4,-4z"></path></g></g></svg>